<?xml version="1.0" encoding="UTF-8"?>
<svg width="200px" height="200px" viewBox="0 0 200 200" version="1.1" xmlns="http://www.w3.org/2000/svg">
    <defs>
        <linearGradient id="honeycombGradient" x1="0%" y1="0%" x2="100%" y2="100%">
            <stop offset="0%" style="stop-color:#FFC107;stop-opacity:1" />
            <stop offset="100%" style="stop-color:#FF6F00;stop-opacity:1" />
        </linearGradient>
    </defs>
    <g stroke="none" fill="none">
        <!-- Hexágono central -->
        <polygon fill="url(#honeycombGradient)" points="100,40 148,70 148,130 100,160 52,130 52,70"></polygon>
        
        <!-- Hexágonos externos (colmena) -->
        <polygon fill="url(#honeycombGradient)" opacity="0.8" points="100,10 148,40 148,100 100,130 52,100 52,40"></polygon>
        <polygon fill="url(#honeycombGradient)" opacity="0.6" points="148,40 196,70 196,130 148,160 100,130 100,70"></polygon>
        <polygon fill="url(#honeycombGradient)" opacity="0.6" points="52,40 100,70 100,130 52,160 4,130 4,70"></polygon>
        <polygon fill="url(#honeycombGradient)" opacity="0.8" points="100,70 148,100 148,160 100,190 52,160 52,100"></polygon>
        
        <!-- Círculo central (representando IA) -->
        <circle fill="#FFFFFF" cx="100" cy="100" r="25"></circle>
        
        <!-- Líneas de conexión (representando IA) -->
        <path stroke="#FFFFFF" stroke-width="3" opacity="0.7" d="M100,75 L100,60"></path>
        <path stroke="#FFFFFF" stroke-width="3" opacity="0.7" d="M100,125 L100,140"></path>
        <path stroke="#FFFFFF" stroke-width="3" opacity="0.7" d="M75,100 L60,100"></path>
        <path stroke="#FFFFFF" stroke-width="3" opacity="0.7" d="M125,100 L140,100"></path>
        <path stroke="#FFFFFF" stroke-width="3" opacity="0.7" d="M82,82 L70,70"></path>
        <path stroke="#FFFFFF" stroke-width="3" opacity="0.7" d="M118,82 L130,70"></path>
        <path stroke="#FFFFFF" stroke-width="3" opacity="0.7" d="M82,118 L70,130"></path>
        <path stroke="#FFFFFF" stroke-width="3" opacity="0.7" d="M118,118 L130,130"></path>
        
        <!-- Patrón de red neuronal en el círculo -->
        <circle fill="#FF6F00" cx="90" cy="90" r="3"></circle>
        <circle fill="#FF6F00" cx="110" cy="90" r="3"></circle>
        <circle fill="#FF6F00" cx="90" cy="110" r="3"></circle>
        <circle fill="#FF6F00" cx="110" cy="110" r="3"></circle>
        <circle fill="#FF6F00" cx="100" cy="85" r="3"></circle>
        <circle fill="#FF6F00" cx="100" cy="115" r="3"></circle>
        
        <path stroke="#FF6F00" stroke-width="1" d="M90,90 L110,90 L110,110 L90,110 Z"></path>
        <path stroke="#FF6F00" stroke-width="1" d="M90,90 L110,110"></path>
        <path stroke="#FF6F00" stroke-width="1" d="M110,90 L90,110"></path>
        <path stroke="#FF6F00" stroke-width="1" d="M100,85 L100,115"></path>
    </g>
</svg>
